<?xml version="1.0" encoding="UTF-8"?>
<svg id="Layer_2" data-name="Layer 2" xmlns="http://www.w3.org/2000/svg" viewBox="0 0 349.22 361.08">
  <defs>
    <style>
      .cls-1 {
        fill: #001722;
      }
    </style>
  </defs>
  <g id="Layer_1-2" data-name="Layer 1">
    <g>
      <path class="cls-1" d="M94.66,180.78c0-43.46,35.78-79.27,79.95-79.27s79.95,35.82,79.95,79.27-35.78,78.79-79.95,78.79-79.95-35.34-79.95-78.79Z"/>
      <g>
        <rect class="cls-1" x="159.15" y="0" width="30.92" height="67.39" rx="15.46" ry="15.46"/>
        <rect class="cls-1" x="59.51" y="41.27" width="30.92" height="67.39" rx="15.46" ry="15.46" transform="translate(-31.05 74.97) rotate(-45)"/>
        <rect class="cls-1" x="18.23" y="140.92" width="30.92" height="67.39" rx="15.46" ry="15.46" transform="translate(-140.92 208.31) rotate(-90)"/>
        <rect class="cls-1" x="300.07" y="140.92" width="30.92" height="67.39" rx="15.46" ry="15.46" transform="translate(490.14 -140.92) rotate(90)"/>
        <rect class="cls-1" x="258.8" y="41.27" width="30.92" height="67.39" rx="15.46" ry="15.46" transform="translate(133.34 -171.97) rotate(45)"/>
      </g>
      <g>
        <rect class="cls-1" x="159.15" y="293.69" width="30.92" height="67.39" rx="15.46" ry="15.46" transform="translate(349.22 654.77) rotate(180)"/>
        <rect class="cls-1" x="258.8" y="252.42" width="30.92" height="67.39" rx="15.46" ry="15.46" transform="translate(670.49 294.49) rotate(135)"/>
        <rect class="cls-1" x="59.51" y="252.42" width="30.92" height="67.39" rx="15.46" ry="15.46" transform="translate(-74.33 541.43) rotate(-135)"/>
      </g>
    </g>
  </g>
</svg>